<?xml version="1.0" encoding="UTF-8" standalone="no"?>
<!DOCTYPE svg PUBLIC "-//W3C//DTD SVG 1.1//EN" "http://www.w3.org/Graphics/SVG/1.1/DTD/svg11.dtd">
<svg version="1.1" xmlns="http://www.w3.org/2000/svg" xmlns:xlink="http://www.w3.org/1999/xlink" preserveAspectRatio="xMidYMid meet" viewBox="0 0 640 640" width="640" height="640"><defs><path d="M320 640C143.39 640 0 496.61 0 320C0 143.39 143.39 0 320 0C496.61 0 640 143.39 640 320C640 496.61 496.61 640 320 640Z" id="e1y92IVSwp"></path><path d="M333.03 191.8L372.09 273.53L411.17 191.8L463.26 191.8L396.17 323.89L437.21 409.74L541.41 191.8L593.5 191.8L463.26 448.21L411.17 448.21L372.09 371.28L333.03 448.21L280.93 448.21L176.74 230.26L98.59 448.21L46.5 448.21L150.69 191.8L202.79 191.8L306.97 409.74L348.03 323.89L280.93 191.8L333.03 191.8Z" id="cGwNKAqv7"></path><radialGradient id="gradientbd0243wbH" gradientUnits="userSpaceOnUse" cx="46.5" cy="191.8" dx="593.5" dy="448.21" r="604.12"><stop style="stop-color: #ffffff;stop-opacity: 1" offset="0%"></stop><stop style="stop-color: #090909;stop-opacity: 1" offset="100%"></stop></radialGradient><path d="M333.03 191.8L372.09 273.53L411.17 191.8L463.26 191.8L396.17 323.89L437.21 409.74L541.41 191.8L593.5 191.8L463.26 448.21L411.17 448.21L372.09 371.28L333.03 448.21L280.93 448.21L176.74 230.26L98.59 448.21L46.5 448.21L150.69 191.8L202.79 191.8L306.97 409.74L348.03 323.89L280.93 191.8L333.03 191.8Z" id="fG5etveWV"></path></defs><g><g><g><use xlink:href="#e1y92IVSwp" opacity="1" fill="#282828" fill-opacity="1"></use><g><use xlink:href="#e1y92IVSwp" opacity="1" fill-opacity="0" stroke="#000000" stroke-width="1" stroke-opacity="0"></use></g></g><g><use xlink:href="#cGwNKAqv7" opacity="1" fill="url(#gradientbd0243wbH)"></use><g><use xlink:href="#cGwNKAqv7" opacity="1" fill-opacity="0" stroke="#000000" stroke-width="1" stroke-opacity="0"></use></g></g><g><use xlink:href="#fG5etveWV" opacity="1" fill="#d1ad54" fill-opacity="1"></use><g><use xlink:href="#fG5etveWV" opacity="1" fill-opacity="0" stroke="#000000" stroke-width="1" stroke-opacity="0"></use></g></g></g></g></svg>