<?xml version="1.0" standalone="no"?>
<!DOCTYPE svg PUBLIC "-//W3C//DTD SVG 20010904//EN"
 "http://www.w3.org/TR/2001/REC-SVG-20010904/DTD/svg10.dtd">
<svg version="1.0" xmlns="http://www.w3.org/2000/svg"
 width="700.000000pt" height="700.000000pt" viewBox="0 0 700.000000 700.000000"
 preserveAspectRatio="xMidYMid meet">
<metadata>
Created by potrace 1.14, written by Peter Selinger 2001-2017
</metadata>
<g transform="translate(0.000000,700.000000) scale(0.100000,-0.100000)"
fill="#000000" stroke="none">
<path d="M3280 6994 c-19 -2 -84 -9 -145 -14 -573 -56 -1169 -279 -1645 -615
-312 -222 -621 -527 -837 -830 -350 -490 -567 -1063 -635 -1670 -17 -154 -17
-585 0 -730 66 -557 234 -1040 525 -1506 224 -360 577 -732 937 -986 486 -344
1036 -552 1655 -625 142 -17 586 -17 730 0 838 98 1561 449 2135 1038 559 574
885 1265 982 2079 17 144 17 586 0 730 -83 698 -333 1301 -761 1834 -109 136
-336 367 -477 485 -526 439 -1140 705 -1834 792 -110 14 -556 27 -630 18z
m-492 -3286 c312 -653 570 -1184 573 -1180 11 12 442 916 442 928 0 6 -162
331 -361 722 -199 391 -362 713 -362 717 0 3 127 4 282 3 l282 -3 213 -445
212 -444 106 219 c58 121 154 321 213 445 l108 225 282 3 c155 1 282 1 282 -1
0 -2 -164 -326 -364 -722 l-365 -718 220 -461 c121 -254 223 -464 227 -468 4
-4 264 528 576 1182 l569 1190 279 0 c153 0 278 -3 278 -7 0 -4 -318 -634
-707 -1400 l-708 -1393 -284 2 -285 3 -210 413 c-115 226 -213 412 -216 412
-4 0 -101 -186 -216 -412 l-210 -413 -285 -3 -286 -2 -569 1189 c-313 654
-570 1188 -571 1187 -2 -1 -194 -535 -427 -1185 -234 -651 -427 -1185 -429
-1187 -2 -3 -130 -3 -284 -2 l-280 3 503 1240 c277 682 532 1311 566 1398 l63
157 288 -2 288 -3 567 -1187z"/>
</g>
</svg>
